<svg width="287" height="32" viewBox="0 0 287 32" fill="none" xmlns="http://www.w3.org/2000/svg">
<path d="M38.6198 23.752H32.6678L31.4198 31H22.2998L27.5798 1H41.9798C47.4198 1 50.1398 3.528 50.1398 8.584C50.1398 10.984 49.8038 13.16 49.1318 15.112C48.4598 17.032 47.7078 18.568 46.8758 19.72C46.0758 20.84 44.9558 21.8 43.5158 22.6C42.1078 23.368 40.4758 23.752 38.6198 23.752ZM36.1238 16.072C37.2118 16.072 38.0278 15.96 38.5718 15.736C39.1478 15.48 39.5158 14.92 39.6758 14.056C40.0918 11.688 40.2998 10.392 40.2998 10.168C40.2998 9.56 40.0598 9.16 39.5798 8.968C39.0998 8.776 38.3798 8.68 37.4198 8.68H35.3078L34.0118 16.072H36.1238ZM20.8598 30.856L0.507812 28.696H21.2438L20.8598 30.856ZM22.4918 21.592L2.13981 19.432H22.8758L22.4918 21.592ZM24.0758 12.376L3.77181 10.216H24.4598L24.0758 12.376ZM24.8918 7.768L4.58781 5.608H25.2758L24.8918 7.768ZM21.6758 26.2L1.32381 24.04H22.0598L21.6758 26.2ZM25.7078 3.16L5.40381 1H26.0918L25.7078 3.16ZM23.2598 16.984L2.95581 14.824H23.6438L23.2598 16.984ZM72.1984 23.512C73.4464 23.512 74.3744 23.368 74.9824 23.08C75.5904 22.76 75.9904 22.056 76.1824 20.968L78.3904 8.488H74.5504C73.3344 8.488 72.4224 8.648 71.8144 8.968C71.2064 9.256 70.8064 9.944 70.6144 11.032L68.4064 23.512H72.1984ZM76.1344 0.279998C80.1984 0.279998 83.0944 1.08 84.8224 2.68C86.5504 4.248 87.4144 6.68 87.4144 9.976C87.4144 13.272 86.8864 16.728 85.8304 20.344C84.8064 23.928 83.1584 26.728 80.8864 28.744C78.6464 30.728 75.3504 31.72 70.9984 31.72C66.6784 31.72 63.6544 30.936 61.9264 29.368C60.1984 27.768 59.3344 25.32 59.3344 22.024C59.3344 20.456 59.5584 18.392 60.0064 15.832C60.4544 13.24 61.0464 11.016 61.7824 9.16C62.5184 7.272 63.5104 5.64 64.7584 4.264C67.1584 1.608 70.9504 0.279998 76.1344 0.279998ZM58.6144 15.784C58.5504 16.04 58.4864 16.392 58.4224 16.84L39.5584 14.824H58.7584L58.6144 15.784ZM58.0864 19.432C57.9904 20.168 57.9424 20.84 57.9424 21.448L39.0304 19.432H58.0864ZM59.9104 10.216L59.3344 12.184L40.7104 10.216H59.9104ZM57.9904 24.04C58.1184 24.936 58.2304 25.608 58.3264 26.056L39.6544 24.04H57.9904ZM61.8784 5.608C61.4304 6.44 61.1104 7.08 60.9184 7.528L42.9664 5.608H61.8784ZM59.4304 28.696C59.8464 29.432 60.3264 30.024 60.8704 30.472L44.2624 28.696H59.4304ZM66.4384 1C65.5104 1.576 64.7904 2.104 64.2784 2.584L49.5904 1H66.4384ZM100.923 12.376L80.5711 10.216H101.259C101.099 10.856 100.987 11.576 100.923 12.376ZM102.555 5.608L101.835 7.72L81.9151 5.608H102.555ZM100.923 14.824C100.987 15.688 101.115 16.408 101.307 16.984L81.0031 14.824H100.923ZM107.643 21.592L82.2511 19.432H102.939C103.995 20.456 105.563 21.176 107.643 21.592ZM106.155 1C105.419 1.48 104.715 2.136 104.043 2.968L85.5151 1H106.155ZM81.4351 24.04H99.3871L98.6671 26.152L81.4351 24.04ZM80.6191 28.696H97.8511L97.1311 30.808L80.6191 28.696ZM101.451 22.552C104.139 23.288 106.587 23.656 108.795 23.656C111.035 23.656 112.859 23.56 114.267 23.368L114.651 20.968L110.667 20.584C107.627 20.296 105.467 19.608 104.187 18.52C102.939 17.432 102.315 15.896 102.315 13.912C102.315 13.048 102.411 12.088 102.603 11.032C103.339 6.936 104.683 4.12 106.635 2.584C108.587 1.048 111.579 0.279998 115.611 0.279998C119.675 0.279998 123.259 0.679998 126.363 1.48L123.867 9.16C121.083 8.68 118.843 8.44 117.147 8.44C115.483 8.44 114.043 8.52 112.827 8.68L112.443 11.032L115.659 11.368C118.923 11.72 121.243 12.504 122.619 13.72C123.995 14.904 124.683 16.504 124.683 18.52C124.683 20.568 124.251 22.68 123.387 24.856C122.907 25.976 122.395 26.92 121.851 27.688C121.339 28.424 120.667 29.064 119.835 29.608C119.035 30.12 118.299 30.52 117.627 30.808C116.955 31.064 116.091 31.256 115.035 31.384C113.563 31.608 111.739 31.72 109.563 31.72C105.595 31.72 101.995 31.304 98.7631 30.472L101.451 22.552ZM162.164 8.68H155.54L151.652 31H142.532L146.42 8.68H139.844L141.236 1H163.556L162.164 8.68ZM141.044 30.856L120.692 28.696H141.428L141.044 30.856ZM142.676 21.592L122.324 19.432H143.06L142.676 21.592ZM143.492 16.984L123.14 14.824H143.876L143.492 16.984ZM144.308 12.376L123.956 10.216H144.692L144.308 12.376ZM141.86 26.2L121.508 24.04H142.244L141.86 26.2ZM138.548 7.768L118.196 5.608H138.884L138.548 7.768ZM139.316 3.16L119.012 1H139.7L139.316 3.16ZM169.967 30.856L149.711 28.696H170.447L169.967 30.856ZM171.023 26.2L150.815 24.04H171.551L171.023 26.2ZM172.127 21.592L151.919 19.432H172.607L172.127 21.592ZM173.183 16.984L153.023 14.824H173.711L173.183 16.984ZM174.287 12.376L154.127 10.216H174.767L174.287 12.376ZM175.343 7.768L155.231 5.608H175.871L175.343 7.768ZM176.447 3.16L156.335 1H176.927L176.447 3.16ZM180.911 31H171.407L178.415 1H190.319L191.183 16.264H191.519L197.759 1H209.663L206.111 31H196.559L198.575 16.456H198.239L192.239 31H185.279L184.271 16.456H184.031L180.911 31ZM240.836 19.672H231.716L231.092 23.32H242.276L240.932 31H220.628L225.908 1H245.972L243.476 8.68H233.636L232.964 12.712H242.084L240.836 19.672ZM219.188 30.856L198.836 28.696H219.572L219.188 30.856ZM220.82 21.592L200.468 19.432H221.204L220.82 21.592ZM221.636 16.984L201.284 14.824H222.02L221.636 16.984ZM222.452 12.376L202.1 10.216H222.836L222.452 12.376ZM223.268 7.768L202.916 5.608H223.604L223.268 7.768ZM220.004 26.2L199.652 24.04H220.388L220.004 26.2ZM224.036 3.16L203.732 1H224.42L224.036 3.16ZM267.312 20.344C267.184 20.12 267.12 19.816 267.12 19.432C267.12 19.016 267.152 18.552 267.216 18.04H266.832L264.576 31H255.456L260.736 1H269.328L274.224 11.656C274.32 11.88 274.368 12.2 274.368 12.616C274.368 13 274.336 13.448 274.272 13.96H274.656L276.96 1H286.08L280.8 31H272.208L267.312 20.344ZM254.016 30.856L233.664 28.696H254.4L254.016 30.856ZM255.648 21.592L235.296 19.432H256.032L255.648 21.592ZM256.464 16.984L236.112 14.824H256.848L256.464 16.984ZM257.28 12.376L236.928 10.216H257.664L257.28 12.376ZM258.096 7.768L237.744 5.608H258.432L258.096 7.768ZM254.832 26.2L234.48 24.04H255.216L254.832 26.2ZM258.864 3.16L238.56 1H259.248L258.864 3.16Z" fill="#222A68"/>
</svg>
