<svg width="50" height="30" viewBox="0 0 50 30" fill="none" xmlns="http://www.w3.org/2000/svg">
<path d="M38.112 22.752H32.16L30.912 30H21.792L27.072 0H41.472C46.912 0 49.632 2.528 49.632 7.584C49.632 9.984 49.296 12.16 48.624 14.112C47.952 16.032 47.2 17.568 46.368 18.72C45.568 19.84 44.448 20.8 43.008 21.6C41.6 22.368 39.968 22.752 38.112 22.752ZM35.616 15.072C36.704 15.072 37.52 14.96 38.064 14.736C38.64 14.48 39.008 13.92 39.168 13.056C39.584 10.688 39.792 9.392 39.792 9.168C39.792 8.56 39.552 8.16 39.072 7.968C38.592 7.776 37.872 7.68 36.912 7.68H34.8L33.504 15.072H35.616ZM20.352 29.856L0 27.696H20.736L20.352 29.856ZM21.984 20.592L1.632 18.432H22.368L21.984 20.592ZM23.568 11.376L3.264 9.216H23.952L23.568 11.376ZM24.384 6.768L4.08 4.608H24.768L24.384 6.768ZM21.168 25.2L0.816 23.04H21.552L21.168 25.2ZM25.2 2.16L4.896 0H25.584L25.2 2.16ZM22.752 15.984L2.448 13.824H23.136L22.752 15.984Z" fill="#222A68"/>
</svg>
